<?xml version="1.0" standalone="no"?><!DOCTYPE svg PUBLIC "-//W3C//DTD SVG 1.1//EN" "http://www.w3.org/Graphics/SVG/1.1/DTD/svg11.dtd"><svg t="1764306268385" class="icon" viewBox="0 0 1024 1024" version="1.1" xmlns="http://www.w3.org/2000/svg" p-id="8348" xmlns:xlink="http://www.w3.org/1999/xlink" width="200" height="200"><path d="M897.8 944.5H126.2c-15.5 0-28-12.6-28-28.1V434H28c-15.5 0-28-12.6-28-28.1 0-3.3 0.6-6.7 1.8-9.8l112-298.4c4.1-10.9 14.5-18.1 26.2-18.2h744c11.7 0 22.1 7.3 26.2 18.2l112 298.4c5.4 14.5-1.9 30.7-16.4 36.1-3.1 1.2-6.5 1.8-9.8 1.8h-70.2v482.4c0 15.5-12.5 28-28 28.1zM600.2 516.2h179.1c15.5 0 28 12.6 28 28.1v344.2h62.5V434H154.2v454.4h418V544.2c0-15.5 12.5-28 28-28z m28 56.1v316.1h123.1V572.3H628.2zM159.4 135.6l-91 242.3h887.1l-19-50.6H308.1c-15.5 0-28.1-12.6-28.1-28.1 0-15.5 12.6-28.1 28.1-28.1h607.4l-50.9-135.5H159.4z m333.7 610.1H251c-15.5 0-28-12.6-28-28.1V544.2c0-15.5 12.5-28 28-28.1h242.2c15.5 0 28 12.6 28 28.1v173.4c-0.1 15.5-12.6 28.1-28.1 28.1zM278.9 572.3v117.3h186.2V572.3H278.9z m-54.7-245c-7.4 0-14.5-3-19.8-8.2-1.3-1.3-2.5-2.7-3.5-4.3-1-1.5-1.9-3.1-2.6-4.8-0.7-1.7-1.2-3.5-1.6-5.3-0.7-3.6-0.7-7.3 0-10.9 0.4-1.8 0.9-3.6 1.6-5.2 0.7-1.7 1.6-3.3 2.6-4.9 1-1.5 2.2-3 3.5-4.3 1.3-1.3 2.7-2.5 4.3-3.5 1.5-1 3.1-1.9 4.8-2.6 1.7-0.7 3.4-1.2 5.2-1.6 3.6-0.7 7.3-0.7 10.9 0 1.8 0.4 3.5 0.9 5.2 1.6 1.7 0.7 3.3 1.6 4.8 2.6s3 2.2 4.3 3.5c1.3 1.3 2.5 2.7 3.5 4.3 1 1.5 1.9 3.2 2.6 4.9 0.7 1.7 1.2 3.4 1.6 5.2 0.4 1.8 0.5 3.6 0.6 5.5 0 1.8-0.2 3.7-0.6 5.5-0.4 1.8-0.9 3.6-1.6 5.3-0.7 1.7-1.6 3.3-2.6 4.8s-2.2 3-3.5 4.3c-1.3 1.3-2.7 2.5-4.3 3.5-1.5 1-3.1 1.9-4.8 2.6-3.3 1.3-7 2-10.6 2z" fill="#333333" p-id="8349"></path></svg>